<svg width="35" height="35" xmlns="http://www.w3.org/2000/svg" fill="none">
 <defs>
  <clipPath id="clip0">
   <rect id="svg_1" x="10" y="10" fill="white" height="16" width="16"/>
  </clipPath>
 </defs>
 <g>
  <title>Layer 1</title>
  <path id="svg_2" d="m17.5,34.5c-9.39227,0 -17,-7.60773 -17,-17c0,-9.39227 7.60773,-17 17,-17c9.39227,0 17,7.60773 17,17c0,9.39227 -7.60773,17 -17,17z" opacity="undefined" stroke="#f68e44" fill="#f68e44"/>
  <g id="svg_3" clip-path="url(#clip0)">
   <path id="svg_4" fill="#EEEFF2" d="m24.3,12.3l-9.3,9.3l-3.3,-3.3c-0.4,-0.4 -1,-0.4 -1.4,0c-0.4,0.4 -0.4,1 0,1.4l4,4c0.2,0.2 0.4,0.3 0.7,0.3c0.3,0 0.5,-0.1 0.7,-0.3l10,-10c0.4,-0.4 0.4,-1 0,-1.4c-0.4,-0.4 -1,-0.4 -1.4,0z"/>
  </g>
 </g>
</svg>