<svg width="207" height="33" xmlns="http://www.w3.org/2000/svg" fill="none">

 <g>
  <title>Layer 1</title>
  <path id="svg_1" fill="#ffffff" d="m22.9232,11.9157l-2.9188,2.5067c-1.717,-1.9573 -3.9147,-2.9188 -6.5931,-2.9188c-2.4038,0 -4.42978,0.8241 -6.04371,2.4724c-1.61394,1.6139 -2.40374,3.64 -2.40374,6.1124c0,2.438 0.7898,4.464 2.43808,6.078c1.61393,1.6139 3.63997,2.4037 6.07797,2.4037c2.7128,0 4.9449,-0.9958 6.6275,-3.0218l2.8845,2.5067c-2.3351,2.7471 -5.769,4.3954 -9.512,4.3954c-3.53688,0 -6.59306,-1.1675 -9.06547,-3.5026c-2.43807,-2.3694 -3.70862,-5.3225 -3.70862,-8.8594c0,-3.537 1.23621,-6.5244 3.67428,-8.8938c2.47241,-2.36944 5.49425,-3.57131 9.03121,-3.57131c3.8459,0 7.0051,1.4079 9.5119,4.29241z"/>
  <path id="svg_2" fill="#ffffff" d="m24.9837,32.0039l-0.0344,-24.00298l4.1207,0l0.0344,24.00298l-4.1207,0z"/>
  <path id="svg_3" fill="#ffffff" d="m32.332,14.6285l4.1551,0l0.0343,10.13c0,2.6097 1.4766,3.8803 3.8116,3.8803c2.3007,0 3.7773,-1.3049 3.7773,-3.949l-0.0343,-10.0957l4.155,0l0.0344,10.3704c0,2.4037 -0.7555,4.2581 -2.2664,5.5629c-1.5109,1.2706 -3.3996,1.8887 -5.7003,1.8887c-2.3007,0 -4.1894,-0.6181 -5.7003,-1.8887c-1.4766,-1.2705 -2.232,-3.0561 -2.2664,-5.4255c0.0344,0 0,-10.4734 0,-10.4734z"/>
  <path id="svg_4" fill="#ffffff" d="m64.3361,27.0249c0.9958,-0.9958 1.4765,-2.2664 1.4765,-3.7773c0,-1.5109 -0.4807,-2.7815 -1.4765,-3.7773c-0.9615,-0.9958 -2.1634,-1.5109 -3.64,-1.5109c-1.4766,0 -2.7471,0.5151 -3.7773,1.5109c-0.9958,0.9958 -1.5109,2.2664 -1.5109,3.7773c0,1.5109 0.5151,2.7815 1.5109,3.7773c1.0302,0.9958 2.3007,1.5109 3.7773,1.5109c1.4423,0 2.6441,-0.5151 3.64,-1.5109zm-12.7742,4.9105l-0.0343,-24.00303l4.1207,0l0.0343,9.16853c0.5838,-1.6826 2.6785,-2.8845 5.5286,-2.9188c2.4381,0 4.4984,0.8585 6.181,2.6098c1.6826,1.7169 2.5068,3.8459 2.5411,6.4214c0,2.5754 -0.8241,4.7044 -2.5067,6.49c-1.6483,1.717 -3.7086,2.5755 -6.1467,2.6098c-2.8502,0 -4.9448,-1.2019 -5.5629,-2.8845l0,2.5068l-4.1551,0z"/>
  <path id="svg_5" fill="#ffffff" d="m72.4744,31.9011l-0.0343,-24.00303l4.0863,0l0.0344,9.06553c0.7897,-1.6483 2.6784,-2.7471 5.0478,-2.7815c3.9833,0 6.3527,2.6441 6.3527,6.9365l0.0344,10.7481l-4.0864,0l-0.0343,-10.1643c0,-2.3694 -1.2706,-3.846 -3.5026,-3.846c-2.2321,0 -3.8116,1.6483 -3.8116,4.052l0.0343,9.9927c-0.0344,0 -4.1207,0 -4.1207,0z"/>
  <path id="svg_6" fill="#ffffff" d="m103.62,27.0592c1.03,-1.0645 1.545,-2.3351 1.545,-3.8803c0,-1.5453 -0.515,-2.8159 -1.545,-3.846c-1.03,-1.0645 -2.301,-1.5796 -3.8116,-1.5796c-1.5453,0 -2.8158,0.5151 -3.846,1.5796c-0.9958,1.0301 -1.5109,2.3007 -1.5109,3.846c0,1.5452 0.5151,2.8158 1.5109,3.8803c1.0302,1.0301 2.3007,1.5452 3.846,1.5452c1.5106,0 2.7816,-0.5151 3.8116,-1.5452zm-13.2892,-3.8803c0,-2.5755 0.9272,-4.7732 2.7471,-6.5588c1.82,-1.7513 4.052,-2.6441 6.6962,-2.6784c2.6439,0 4.8759,0.8928 6.7309,2.6441c1.819,1.7512 2.747,3.9489 2.781,6.5244c0.034,2.5754 -0.927,4.7731 -2.747,6.5587c-1.82,1.7857 -4.052,2.6441 -6.6963,2.6785c-2.6441,0 -4.8761,-0.8928 -6.7304,-2.6441c-1.8543,-1.717 -2.7815,-3.949 -2.7815,-6.5244z"/>
  <path id="svg_7" fill="#ffffff" d="m111.586,14.4568l4.155,0l0.035,10.13c0,2.6098 1.476,3.8803 3.811,3.8803c2.301,0 3.778,-1.3049 3.778,-3.949l-0.035,-10.0957l4.155,0l0.035,10.3704c0,2.4037 -0.756,4.2581 -2.267,5.5629c-1.511,1.2706 -3.399,1.8887 -5.7,1.923c-2.301,0 -4.189,-0.6181 -5.7,-1.8886c-1.477,-1.2706 -2.232,-3.0562 -2.267,-5.4256l0,-10.5077z"/>
  <path id="svg_8" fill="#ffffff" d="m131.709,26.4754c0.79,1.2362 2.473,2.1634 4.567,2.1634c2.164,0 3.091,-0.8242 3.091,-1.8887c0,-0.5838 -0.412,-1.0645 -0.996,-1.3735c-0.378,-0.2404 -1.099,-0.4808 -1.614,-0.6525c-0.515,-0.1717 -1.545,-0.4807 -2.129,-0.7211c-2.781,-0.9958 -4.258,-2.4037 -4.292,-4.8762c0,-1.6139 0.583,-2.8501 1.751,-3.7773c1.202,-0.9271 2.644,-1.4078 4.361,-1.4078c2.438,0 4.292,0.8584 5.632,2.541l-2.301,2.4381c-0.755,-0.9615 -1.889,-1.4422 -3.365,-1.4422c-1.271,0 -2.095,0.6181 -2.095,1.5452c0,0.5838 0.309,0.8928 0.79,1.2019c0.275,0.1717 0.961,0.4464 1.408,0.6181c0.515,0.1373 1.476,0.4807 2.163,0.7211c3.194,1.1332 4.67,2.6785 4.67,5.1509c0,3.1935 -2.403,5.5286 -7.108,5.5286c-3.468,0 -6.078,-1.3393 -7.177,-3.5026l2.644,-2.2664z"/>
  <path id="svg_9" fill="#ffffff" d="m158.082,21.1871c0,-1.0302 -0.447,-1.923 -1.305,-2.6441c-0.859,-0.7555 -1.855,-1.1332 -3.056,-1.1332c-1.271,0 -2.404,0.3777 -3.331,1.0988c-0.927,0.7212 -1.443,1.614 -1.546,2.6785l9.238,0zm-13.461,1.8886c0,-2.7471 0.858,-4.9448 2.541,-6.6617c1.717,-1.6827 3.88,-2.5068 6.524,-2.5411c2.507,0 4.567,0.8241 6.181,2.5067c1.614,1.6826 2.404,3.743 2.438,6.2154c0,0.5151 -0.034,0.9958 -0.068,1.4422l-13.496,0.0344c0.138,2.7471 2.164,4.5327 5.254,4.5327c1.786,0 3.331,-0.6524 4.67,-1.9916l2.473,2.4037c-1.958,2.0603 -4.361,3.1248 -7.28,3.1248c-2.713,0 -4.945,-0.8241 -6.662,-2.438c-1.682,-1.614 -2.541,-3.7773 -2.575,-6.4901l0,-0.1374z"/>
  <path id="svg_10" fill="#ffffff" d="m168.59,26.1663c-1.649,0 -2.988,1.3392 -2.988,2.9875c0,1.6482 1.339,2.9875 2.988,2.9875c1.648,0 2.987,-1.3393 2.987,-2.9875c0,-1.6483 -1.339,-2.9875 -2.987,-2.9875z"/>
  <path id="svg_11" fill="#ffffff" d="m183.733,15.2466l-14.697,4.7045l-0.034,-11.29758l14.697,-4.70445l0.034,11.29753zm2.782,-9.20285l0,-5.94066l-20.26,6.52442l0.034,17.20389l20.26,-6.5244l-0.034,-11.26325z"/>
  <path id="svg_12" fill="#ffffff" d="m201.521,15.4526l-15.007,4.8074l-0.034,-11.29751l13.804,-4.46408l-3.159,6.69609l4.396,4.2581zm3.777,-15.4526l-21.565,6.90215l0,17.20385l22.973,-7.3829l-6.25,-6.078l4.842,-10.6451z"/>
 </g>
</svg>