<svg width="180" height="51" xmlns="http://www.w3.org/2000/svg" fill="none">
 <g>
  <title>Layer 1</title>
  <path d="m9.64281,0.17856c-3.66661,1.53802 -7.69744,5.88313 -8.97051,11.33714c-1.61224,6.9105 5.09705,9.8328 5.64734,8.8746c0.6477,-1.1258 -1.20222,-1.5066 -1.58301,-5.0921c-0.49215,-4.6309 1.65626,-9.80549 4.36009,-12.07594c0.5026,-0.42182 0.47869,0.16529 0.47869,1.25127c0,1.94199 -0.10708,19.37537 -0.10708,23.01367c0,4.9232 -0.20292,6.4778 -0.56735,8.014c-0.36926,1.5568 -0.9629,2.6087 -0.51307,3.0139c0.50257,0.4532 2.64839,-0.6249 3.89059,-2.3623c1.4896,-2.0838 2.0111,-4.5863 2.1047,-7.3039c0.1131,-3.2761 0.1083,-8.4745 0.1131,-11.4396c0.0045,-2.7195 0.0457,-10.68275 -0.0476,-15.46995c-0.0229,-1.1742 -3.2725,-2.40611 -4.80607,-1.76222l0.00018,0.00143zm130.20119,23.04004c-0.118,2.5594 -0.684,4.5599 -1.385,5.971c-1.359,2.7318 -4.177,3.5801 -5.374,-0.347c-0.652,-2.1406 -0.683,-5.7157 -0.214,-8.7029c0.477,-3.0431 1.81,-5.3413 4.017,-5.1341c2.177,0.2049 3.196,3.0157 2.956,8.213zm-36.696,15.8793c-0.03,4.2527 -0.698,7.9813 -2.13,9.0643c-2.0312,1.5356 -4.7615,0.3837 -4.1961,-2.7195c0.5002,-2.746 2.866,-5.5504 6.3321,-8.977c0,0 0.007,0.7814 -0.006,2.6322zm-0.555,-15.9041c-0.124,2.3311 -0.727,4.673 -1.385,5.9961c-1.3582,2.7318 -4.1974,3.5858 -5.374,-0.347c-0.8044,-2.687 -0.6118,-6.1647 -0.2137,-8.356c0.5165,-2.8431 1.7684,-5.4807 4.0169,-5.4807c2.1858,0 3.2638,2.4033 2.9558,8.1876zm-21.258,-0.0357c-0.1333,2.4689 -0.6139,4.5328 -1.3852,6.0318c-1.3955,2.713 -4.1563,3.5734 -5.3739,-0.347c-0.8777,-2.8269 -0.5789,-6.6814 -0.2138,-8.7636c0.5419,-3.09 1.8988,-5.2807 4.017,-5.0731c2.1759,0.2131 3.2336,3.0152 2.9559,8.1519zm97.421,2.8838c-0.532,0 -0.775,0.5494 -0.975,1.4743c-0.697,3.2156 -1.429,3.9417 -2.373,3.9417c-1.055,0 -2.003,-1.5923 -2.246,-4.7796c-0.192,-2.5063 -0.161,-7.1205 0.084,-11.7104c0.05,-0.9431 -0.21,-1.8761 -2.734,-2.795c-1.086,-0.3953 -2.665,-0.9772 -3.451,0.9243c-2.221,5.3722 -3.09,9.6372 -3.294,11.3698c-0.011,0.0897 -0.121,0.108 -0.14,-0.1015c-0.13,-1.3877 -0.421,-3.9094 -0.458,-9.2075c-0.007,-1.0338 -0.225,-1.9137 -1.364,-2.634c-0.738,-0.4675 -2.982,-1.2942 -3.79,-0.3106c-0.699,0.8043 -1.51,2.969 -2.352,5.535c-0.685,2.0855 -1.161,3.4964 -1.161,3.4964c0,0 0.009,-5.6273 0.017,-7.7617c0.003,-0.8053 -0.548,-1.0736 -0.714,-1.1223c-0.748,-0.2176 -2.222,-0.581 -2.847,-0.581c-0.772,0 -0.961,0.4324 -0.961,1.0624c0,0.0825 -0.122,7.4087 -0.122,12.5316c0,0.2225 0,0.4653 0.002,0.7232c-0.427,2.3545 -1.812,5.5508 -3.317,5.5508c-1.508,0 -2.219,-1.3363 -2.219,-7.4435c0,-3.5629 0.106,-5.1121 0.159,-7.6889c0.03,-1.4842 0.089,-2.624 0.086,-2.8827c-0.011,-0.7931 -1.38,-1.1929 -2.017,-1.3406c-0.64,-0.149 -1.196,-0.2067 -1.63,-0.182c-0.614,0.0348 -1.049,0.4388 -1.049,0.9945c0,0.2979 0.003,0.8644 0.003,0.8644c-0.791,-1.2464 -2.064,-2.1139 -2.911,-2.3653c-2.282,-0.6789 -4.662,-0.0773 -6.458,2.4406c-1.427,2.0006 -2.287,4.2665 -2.626,7.5221c-0.248,2.38 -0.167,4.7935 0.273,6.8346c-0.531,2.3032 -1.518,3.2468 -2.599,3.2468c-1.569,0 -2.706,-2.5662 -2.574,-7.0042c0.087,-2.9191 0.67,-4.9676 1.307,-7.9312c0.272,-1.2634 0.051,-1.9248 -0.503,-2.5587c-0.507,-0.5814 -1.589,-0.8784 -3.145,-0.5131c-1.107,0.2605 -2.691,0.5406 -4.141,0.7557c0,0 0.088,-0.3496 0.16,-0.966c0.377,-3.2326 -3.129,-2.9703 -4.247,-1.9378c-0.668,0.6164 -1.122,1.3434 -1.295,2.6506c-0.273,2.0744 1.415,3.0528 1.415,3.0528c-0.554,2.5409 -1.911,5.8601 -3.313,8.2599c-0.751,1.2858 -1.325,2.2385 -2.067,3.2513c-0.003,-0.3771 -0.005,-0.7542 -0.006,-1.1296c-0.017,-5.3419 0.054,-9.5462 0.085,-11.0616c0.031,-1.4842 0.09,-2.5938 0.087,-2.8524c-0.009,-0.5802 -0.347,-0.7992 -1.05,-1.0766c-0.622,-0.2454 -1.357,-0.4152 -2.119,-0.4744c-0.963,-0.0753 -1.543,0.4363 -1.528,1.0412c0.003,0.1142 0.003,0.8156 0.003,0.8156c-0.791,-1.2465 -2.064,-2.114 -2.9111,-2.3654c-2.2814,-0.6786 -4.662,-0.077 -6.4576,2.4406c-1.4268,2.0006 -2.3613,4.808 -2.626,7.4973c-0.2466,2.5064 -0.2011,4.6364 0.1351,6.4306c-0.3627,1.7967 -1.4057,3.6756 -2.585,3.6756c-1.5077,0 -2.3655,-1.3363 -2.3655,-7.4435c0,-3.5628 0.1067,-5.112 0.1592,-7.6886c0.0304,-1.4842 0.0892,-2.6243 0.0859,-2.8826c-0.0111,-0.7932 -1.3798,-1.193 -2.0166,-1.341c-0.6664,-0.1544 -1.2417,-0.2113 -1.6835,-0.1786c-0.5828,0.0435 -0.9926,0.5665 -0.9926,0.9566l0,0.899c-0.7915,-1.2465 -2.0645,-2.114 -2.9116,-2.3654c-2.2813,-0.6786 -4.6486,-0.0673 -6.4575,2.4406c-1.1796,1.6353 -2.1345,3.4483 -2.626,7.4616c-0.142,1.1598 -0.2048,2.2459 -0.1966,3.261c-0.4704,2.8827 -2.5479,6.2052 -4.2474,6.2052c-0.9944,0 -1.9415,-1.9329 -1.9415,-6.0523c0,-5.4873 0.3389,-13.3001 0.3962,-14.053c0,0 2.1472,-0.0366 2.563,-0.0415c1.071,-0.0117 2.0411,0.0136 3.4676,-0.0595c0.7155,-0.0365 1.4048,-2.60977 0.6664,-2.92824c-0.3347,-0.14414 -2.7002,-0.27043 -3.638,-0.29038c-0.7885,-0.01791 -2.9836,-0.1807 -2.9836,-0.1807c0,0 0.1969,-5.18575 0.2427,-5.73356c0.0389,-0.45657 -0.5506,-0.69165 -0.8886,-0.83429c-0.8219,-0.34838 -1.5574,-0.51519 -2.4291,-0.69527c-1.2043,-0.24898 -1.7507,-0.00544 -1.8574,1.01315c-0.1607,1.54589 -0.244,6.0738 -0.244,6.0738c-0.8837,0 -3.9027,-0.17312 -4.7867,-0.17312c-0.8214,0 -1.7079,3.53981 -0.5723,3.58331c1.3065,0.0508 3.5833,0.0946 5.0928,0.1403c0,0 -0.0673,7.9414 -0.0673,10.3932c0,0.2608 0.0023,0.512 0.0028,0.7558c-0.8308,4.339 -3.7568,6.6829 -3.7568,6.6829c0.6284,-2.8705 -0.6552,-5.0262 -2.9673,-6.8509c-0.8519,-0.6725 -2.5335,-1.9455 -4.415,-3.3405c0,0 1.0897,-1.0763 2.0561,-3.2416c0.6848,-1.5338 0.7143,-3.2891 -0.9664,-3.6761c-2.7771,-0.64 -5.0669,1.4038 -5.7499,3.5858c-0.5292,1.6903 -0.2469,2.9446 0.7897,4.2475c0.0757,0.0952 0.1577,0.1925 0.2425,0.2904c-0.6269,1.2108 -1.4881,2.841 -2.2175,4.1052c-2.0245,3.5099 -3.5538,6.2862 -4.7096,6.2862c-0.9239,0 -0.9115,-2.8187 -0.9115,-5.4577c0,-2.2751 0.1677,-5.6955 0.3015,-9.2369c0.0444,-1.1711 -0.54,-1.8383 -1.5197,-2.4426c-0.5952,-0.3672 -1.8655,-1.089 -2.6013,-1.089c-1.1012,0 -4.2784,0.1501 -7.2804,8.8522c-0.3783,1.0968 -1.1215,3.0953 -1.1215,3.0953l0.0639,-10.4645c0,-0.2454 -0.1304,-0.4826 -0.429,-0.6449c-0.5058,-0.2752 -1.857,-0.8381 -3.0584,-0.8381c-0.5724,0 -0.858,0.2668 -0.858,0.7986l-0.1048,16.3718c0,1.244 0.0323,2.6952 0.1551,3.3299c0.1222,0.6355 0.3203,1.1525 0.5657,1.4601c0.245,0.307 0.5284,0.5411 0.9956,0.6378c0.4349,0.0897 2.8162,0.3961 2.9399,-0.5158c0.1483,-1.0929 0.154,-2.2749 1.4044,-6.6836c1.9466,-6.8636 4.4847,-10.2125 5.6778,-11.4018c0.2086,-0.2079 0.4468,-0.2203 0.4353,0.1199c-0.0509,1.5048 -0.23,5.2649 -0.3506,8.4594c-0.3232,8.5489 1.2287,10.1334 3.4465,10.1334c1.6967,0 4.0884,-1.6894 6.6523,-5.9659c1.5984,-2.6651 3.1504,-5.2782 4.2654,-7.1616c0.7771,0.7208 1.6491,1.4967 2.5205,2.3255c2.0251,1.926 2.69,3.7562 2.2488,5.4924c-0.3374,1.3273 -1.608,2.6951 -3.8695,1.3656c-0.6591,-0.3878 -0.9405,-0.6875 -1.6032,-1.1248c-0.3561,-0.2349 -0.8998,-0.3051 -1.2257,-0.059c-0.8467,0.6397 -1.331,1.4534 -1.6075,2.4608c-0.2689,0.9803 0.7107,1.4985 1.7263,1.9517c0.8744,0.3901 2.7538,0.7436 3.9524,0.7839c4.6701,0.1565 8.4112,-2.2597 11.0155,-8.4921c0.4661,5.3825 2.4502,8.4283 5.8973,8.4283c2.3046,0 4.6152,-2.9852 5.6256,-5.9218c0.2901,1.1971 0.7195,2.238 1.274,3.1183c2.6561,4.2173 7.809,3.3096 10.3973,-0.2716c0.8003,-1.1065 0.9221,-1.5042 0.9221,-1.5042c0.3775,3.3815 3.0949,4.563 4.6508,4.563c1.7425,0 3.5417,-0.8255 4.8027,-3.6704c0.1478,0.3088 0.3091,0.6036 0.4852,0.8831c2.6562,4.2173 7.809,3.3096 10.3972,-0.2715c0.122,-0.168 0.228,-0.3204 0.321,-0.4572l0.076,2.2211c0,0 -1.477,1.3574 -2.383,2.1901c-3.9896,3.6677 -7.023,6.4503 -7.2461,9.6907c-0.2864,4.1318 3.0575,5.6674 5.5873,5.8687c2.6868,0.2136 4.9878,-1.2736 6.4018,-3.355c1.243,-1.832 2.058,-5.7749 1.998,-9.6692c-0.024,-1.5595 -0.063,-3.5423 -0.094,-5.6677c1.402,-1.6317 2.982,-3.694 4.437,-6.1079c1.585,-2.6307 3.284,-6.1636 4.153,-8.913c0,0 1.476,0.0127 3.052,-0.0906c0.503,-0.033 0.648,0.0701 0.555,0.4402c-0.112,0.4472 -1.99,7.7046 -0.276,12.5392c1.172,3.3096 3.817,4.3745 5.384,4.3745c1.835,0 3.591,-1.3888 4.532,-3.451c0.113,0.2299 0.231,0.4523 0.361,0.6577c2.656,4.2173 7.791,3.3042 10.397,-0.2716c0.588,-0.8067 0.922,-1.5042 0.922,-1.5042c0.56,3.4997 3.275,4.5808 4.831,4.5808c1.62,0 3.158,-0.6657 4.406,-3.6241c0.052,1.3026 0.134,2.3677 0.264,2.7035c0.079,0.2054 0.539,0.4632 0.874,0.5877c1.483,0.5509 2.994,0.2904 3.554,0.1771c0.387,-0.0786 0.689,-0.3901 0.731,-1.1945c0.108,-2.1121 0.042,-5.6608 0.681,-8.2981c1.072,-4.4261 2.073,-6.143 2.547,-6.9929c0.266,-0.4763 0.566,-0.5548 0.576,-0.0508c0.023,1.0198 0.073,4.0146 0.489,8.0382c0.305,2.9592 0.713,4.7083 1.026,5.2619c0.894,1.583 1.998,1.658 2.897,1.658c0.572,0 1.769,-0.1584 1.661,-1.1658c-0.052,-0.4911 0.04,-3.5257 1.097,-7.8862c0.691,-2.8476 1.842,-5.4206 2.257,-6.3612c0.153,-0.3469 0.224,-0.0734 0.222,-0.0202c-0.087,1.9611 -0.284,8.3754 0.514,11.8836c1.08,4.7524 4.206,5.2842 5.296,5.2842c2.326,0 4.228,-1.7728 4.868,-6.4376c0.155,-1.1226 -0.074,-1.9894 -0.759,-1.9894" fill="#ffffff" id="svg_1"/>
 </g>

</svg>