<svg width="205" height="61" xmlns="http://www.w3.org/2000/svg" fill="none">

 <g>
  <title>Layer 1</title>
  <path id="svg_1" fill="#ffffff" d="m31.2557,0c-16.8719,0 -30.54989,13.6556 -30.54989,30.5002c0,16.8453 13.67799,30.4998 30.54989,30.4998c16.8737,0 30.5502,-13.6545 30.5502,-30.4998c0,-16.8436 -13.6765,-30.49874 -30.5506,-30.49874l0.0004,-0.00146zm14.01,43.99c-0.5473,0.896 -1.7219,1.1801 -2.6193,0.6301c-7.1728,-4.3742 -16.2025,-5.3649 -26.8366,-2.9392c-1.0247,0.2331 -2.0462,-0.4079 -2.2796,-1.4314c-0.2346,-1.0234 0.4049,-2.0432 1.4322,-2.2763c11.6373,-2.6544 21.6194,-1.5115 29.6721,3.4017c0.8975,0.55 1.182,1.7191 0.6312,2.6151zm3.7392,-8.3048c-0.6895,1.1188 -2.156,1.4721 -3.2759,0.7838c-8.2118,-5.0393 -20.7294,-6.4988 -30.4423,-3.5552c-1.2597,0.3799 -2.5901,-0.3288 -2.9724,-1.5843c-0.3794,-1.2576 0.3309,-2.5834 1.5883,-2.9658c11.0948,-3.361 24.8878,-1.733 34.318,4.0526c1.1199,0.6884 1.4738,2.1525 0.7843,3.2692l0,-0.0003zm0.321,-8.648c-9.8461,-5.8387 -26.0908,-6.3756 -35.4915,-3.5271c-1.5095,0.4571 -3.1059,-0.3937 -3.5634,-1.9008c-0.45747,-1.5079 0.394,-3.1006 1.9046,-3.5588c10.7913,-3.2706 28.7306,-2.6387 40.0666,4.08c1.3607,0.8045 1.8058,2.5553 0.9995,3.9091c-0.8025,1.3556 -2.5609,1.8025 -3.9143,0.9976l-0.0015,0zm34.496,1.1189c-5.2751,-1.2558 -6.2126,-2.1372 -6.2126,-3.9893c0,-1.7497 1.6489,-2.9272 4.104,-2.9272c2.3786,0 4.7352,0.8942 7.2086,2.7349c0.0729,0.0557 0.1678,0.078 0.259,0.0634c0.0948,-0.0138 0.1751,-0.0645 0.2298,-0.1406l2.5755,-3.6247c0.1058,-0.1493 0.0766,-0.3551 -0.0656,-0.4691c-2.944,-2.3576 -6.2564,-3.5037 -10.1307,-3.5037c-5.6946,0 -9.6746,3.4123 -9.6746,8.2946c0,5.2356 3.4328,7.0895 9.3645,8.5205c5.0453,1.1607 5.8989,2.1332 5.8989,3.8712c0,1.9267 -1.7218,3.125 -4.4944,3.125c-3.0789,0 -5.5924,-1.038 -8.4014,-3.4637c-0.0693,-0.0619 -0.1642,-0.0874 -0.2517,-0.0838c-0.0949,0.0073 -0.1788,0.051 -0.2372,0.1202l-2.8892,3.431c-0.1204,0.1456 -0.1058,0.3569 0.0328,0.4807c3.2687,2.9138 7.2888,4.4507 11.63,4.4507c6.136,0 10.1015,-3.3471 10.1015,-8.5299c0.0109,-4.3731 -2.612,-6.7952 -9.0363,-8.3555l-0.0109,-0.0047zm22.9321,-5.1937c-2.66,0 -4.841,1.046 -6.644,3.1894l0,-2.4126c0,-0.1904 -0.1528,-0.3456 -0.3425,-0.3456l-4.7242,0c-0.1897,0 -0.3429,0.1552 -0.3429,0.3456l0,26.8067c0,0.1894 0.1532,0.346 0.3429,0.346l4.7242,0c0.1897,0 0.3425,-0.1566 0.3425,-0.346l0,-8.4607c1.803,2.0141 3.984,3.0011 6.644,3.0011c4.943,0 9.948,-3.7988 9.948,-11.0609c0.007,-7.2635 -4.998,-11.0634 -9.945,-11.0634l-0.003,0.0004zm4.454,11.063c0,3.6965 -2.28,6.2787 -5.549,6.2787c-3.228,0 -5.6653,-2.6988 -5.6653,-6.2787c0,-3.5802 2.4373,-6.2783 5.6653,-6.2783c3.214,-0.0004 5.549,2.6394 5.549,6.278l0,0.0003zm18.317,-11.063c-6.366,0 -11.353,4.8936 -11.353,11.1421c0,6.1814 4.954,11.0219 11.276,11.0219c6.388,0 11.389,-4.8769 11.389,-11.101c0,-6.2029 -4.968,-11.0623 -11.312,-11.0623l0,-0.0007zm0,17.3782c-3.386,0 -5.939,-2.7171 -5.939,-6.317c0,-3.6163 2.466,-6.2405 5.862,-6.2405c3.407,0 5.976,2.716 5.976,6.3195c0,3.6156 -2.481,6.238 -5.899,6.238zm24.905,-16.947l-5.199,0l0,-5.3052c0,-0.1901 -0.153,-0.3453 -0.342,-0.3453l-4.725,0c-0.189,0 -0.346,0.1552 -0.346,0.3453l0,5.3052l-2.269,0c-0.19,0 -0.343,0.1552 -0.343,0.3456l0,4.0527c0,0.1901 0.153,0.3456 0.343,0.3456l2.269,0l0,10.4876c0,4.2358 2.112,6.3847 6.282,6.3847c1.692,0 3.097,-0.3496 4.421,-1.0999c0.11,-0.0583 0.175,-0.1748 0.175,-0.2987l0,-3.8607c0,-0.1165 -0.062,-0.2294 -0.164,-0.2913c-0.102,-0.0656 -0.23,-0.0692 -0.336,-0.0146c-0.908,0.4553 -1.787,0.6665 -2.772,0.6665c-1.514,0 -2.193,-0.6884 -2.193,-2.2253l0,-9.7465l5.199,0c0.19,0 0.343,-0.1551 0.343,-0.3456l0,-4.0523c0.007,-0.1905 -0.146,-0.3456 -0.339,-0.3456l-0.004,-0.0022zm18.109,0.0208l0,-0.6516c0,-1.9169 0.737,-2.7717 2.386,-2.7717c0.985,0 1.776,0.1952 2.663,0.4902c0.109,0.0343 0.222,0.0171 0.31,-0.048c0.091,-0.0652 0.142,-0.1698 0.142,-0.2805l0,-3.9736c0,-0.1519 -0.095,-0.2863 -0.244,-0.3311c-0.934,-0.2779 -2.131,-0.563 -3.926,-0.563c-4.359,0 -6.668,2.4526 -6.668,7.0901l0,0.998l-2.269,0c-0.19,0 -0.347,0.1552 -0.347,0.3453l0,4.0734c0,0.1901 0.157,0.3456 0.347,0.3456l2.269,0l0,16.173c0,0.1931 0.157,0.346 0.346,0.346l4.721,0c0.193,0 0.346,-0.1529 0.346,-0.346l0,-16.1719l4.411,0l6.756,16.1719c-0.766,1.6973 -1.521,2.036 -2.55,2.036c-0.832,0 -1.711,-0.2477 -2.605,-0.7394c-0.083,-0.0437 -0.186,-0.051 -0.273,-0.0255c-0.091,0.0328 -0.168,0.0984 -0.204,0.1858l-1.602,3.5074c-0.077,0.1675 -0.011,0.3606 0.15,0.448c1.67,0.9032 3.177,1.2893 5.041,1.2893c3.488,0 5.418,-1.6244 7.114,-5.9877l8.193,-21.138c0.044,-0.1064 0.03,-0.2266 -0.036,-0.3209c-0.062,-0.0936 -0.168,-0.15 -0.281,-0.15l-4.918,0c-0.149,0 -0.28,0.0936 -0.328,0.2316l-5.038,14.3625l-5.516,-14.372c-0.051,-0.1336 -0.178,-0.2221 -0.321,-0.2221l-8.069,0l0,-0.0011zm-10.499,-0.0208l-4.724,0c-0.19,0 -0.347,0.1552 -0.347,0.3456l0,20.5713c0,0.1931 0.157,0.346 0.347,0.346l4.724,0c0.189,0 0.346,-0.1529 0.346,-0.346l0,-20.5698c0,-0.1905 -0.153,-0.3456 -0.346,-0.3456l0,-0.0015zm-2.335,-9.3673c-1.871,0 -3.389,1.5122 -3.389,3.3803c0,1.8692 1.518,3.3832 3.389,3.3832c1.871,0 3.385,-1.514 3.385,-3.3832c0,-1.8677 -1.517,-3.3803 -3.385,-3.3803zm41.376,15.9818c-1.868,0 -3.323,-1.4987 -3.323,-3.3187c0,-1.82 1.474,-3.3359 3.341,-3.3359c1.868,0 3.324,1.4984 3.324,3.3169c0,1.82 -1.474,3.3377 -3.342,3.3377zm0.018,-6.3246c-1.703,0 -2.991,1.3513 -2.991,3.0059c0,1.6539 1.281,2.9869 2.973,2.9869c1.704,0 2.992,-1.3501 2.992,-3.0059c0,-1.6539 -1.281,-2.9869 -2.974,-2.9869zm0.737,3.3282l0.942,1.3141l-0.796,0l-0.846,-1.2055l-0.726,0l0,1.2055l-0.664,0l0,-3.4834l1.554,0c0.814,0 1.346,0.4142 1.346,1.1113c0.004,0.5711 -0.328,0.92 -0.806,1.058l-0.004,0zm-0.561,-1.5716l-0.865,0l0,1.1018l0.865,0c0.43,0 0.689,-0.2109 0.689,-0.5514c0,-0.3584 -0.259,-0.5504 -0.689,-0.5504z"/>
 </g>
</svg>